<svg width="31" height="23" viewBox="0 0 31 23" fill="none" xmlns="http://www.w3.org/2000/svg">
<path d="M27.8945 13.0986V12.8261C27.896 11.1108 27.5649 9.41265 26.9209 7.83209C26.2769 6.25153 25.333 4.8207 24.1451 3.62428C22.7583 2.22795 21.0692 1.19465 19.2183 0.610445H19.1409C17.8432 0.187438 16.4886 -0.0182173 15.1282 0.00126507C11.8876 0.185308 8.83764 1.64408 6.60258 4.07893C4.36753 6.51378 3.11648 9.74055 3.10555 13.0986C2.0701 13.4755 1.19697 14.2195 0.640807 15.1986C0.084646 16.1778 -0.118655 17.3291 0.0669111 18.4485C0.252477 19.5679 0.814936 20.5832 1.65467 21.3147C2.4944 22.0461 3.5572 22.4464 4.65485 22.4447H26.3451C27.4428 22.4464 28.5056 22.0461 29.3453 21.3147C30.1851 20.5832 30.7475 19.5679 30.9331 18.4485C31.1187 17.3291 30.9154 16.1778 30.3592 15.1986C29.803 14.2195 28.9299 13.4755 27.8945 13.0986ZM26.3451 19.2385H4.65485C4.24395 19.2385 3.84988 19.0696 3.55933 18.769C3.26878 18.4684 3.10555 18.0606 3.10555 17.6354C3.10555 17.2103 3.26878 16.8025 3.55933 16.5019C3.84988 16.2012 4.24395 16.0323 4.65485 16.0323H7.75347C8.16437 16.0323 8.55844 15.8634 8.84899 15.5628C9.13954 15.2621 9.30277 14.8544 9.30277 14.4292C9.30277 14.004 9.13954 13.5963 8.84899 13.2957C8.55844 12.995 8.16437 12.8261 7.75347 12.8261H6.20416C6.27482 11.1634 6.73474 9.54329 7.54437 8.10516C8.354 6.66703 9.48911 5.45391 10.8521 4.57012V9.6199C10.8521 10.0451 11.0153 10.4528 11.3059 10.7535C11.5964 11.0541 11.9905 11.223 12.4014 11.223C12.8123 11.223 13.2064 11.0541 13.4969 10.7535C13.7875 10.4528 13.9507 10.0451 13.9507 9.6199V3.35176C14.3712 3.27906 14.7954 3.23089 15.2211 3.20748H15.5C16.0201 3.21241 16.5386 3.26607 17.0493 3.36779V9.6199C17.0493 10.0451 17.2125 10.4528 17.5031 10.7535C17.7936 11.0541 18.1877 11.223 18.5986 11.223C19.0095 11.223 19.4036 11.0541 19.6941 10.7535C19.9847 10.4528 20.1479 10.0451 20.1479 9.6199V4.52202C20.8051 4.91579 21.4182 5.38353 21.9761 5.91673C22.8694 6.8143 23.5793 7.88842 24.0636 9.07532C24.548 10.2622 24.797 11.5377 24.7958 12.8261H23.2465C22.8356 12.8261 22.4416 12.995 22.151 13.2957C21.8605 13.5963 21.6972 14.004 21.6972 14.4292C21.6972 14.8544 21.8605 15.2621 22.151 15.5628C22.4416 15.8634 22.8356 16.0323 23.2465 16.0323H26.3451C26.7561 16.0323 27.1501 16.2012 27.4407 16.5019C27.7312 16.8025 27.8945 17.2103 27.8945 17.6354C27.8945 18.0606 27.7312 18.4684 27.4407 18.769C27.1501 19.0696 26.7561 19.2385 26.3451 19.2385Z" fill="#734D29"/>
</svg>
