<svg width="18" height="24" viewBox="0 0 18 24" fill="none" xmlns="http://www.w3.org/2000/svg">
<g clip-path="url(#clip0_88_12)">
<path d="M17.8803 9.81818C17.8803 17.4545 9.41068 24 9.41068 24C9.41068 24 0.941071 17.4545 0.941071 9.81818C0.941071 7.21424 1.8334 4.71695 3.42176 2.87568C5.01012 1.03441 7.1644 0 9.41068 0C11.657 0 13.8112 1.03441 15.3996 2.87568C16.988 4.71695 17.8803 7.21424 17.8803 9.81818Z" fill="#734D29"/>
<path d="M9.4107 12C10.9699 12 12.2339 10.6569 12.2339 9C12.2339 7.34315 10.9699 6 9.4107 6C7.85149 6 6.58749 7.34315 6.58749 9C6.58749 10.6569 7.85149 12 9.4107 12Z" fill="#FFFEDD"/>
</g>
<defs>
<clipPath id="clip0_88_12">
<rect width="16.9392" height="24" fill="white" transform="translate(0.941071)"/>
</clipPath>
</defs>
</svg>
