<svg width="19" height="20" viewBox="0 0 19 20" fill="none" xmlns="http://www.w3.org/2000/svg">
<path d="M18.7161 14.9201V17.9201C18.7171 18.1986 18.6635 18.4743 18.5585 18.7294C18.4535 18.9846 18.2995 19.2137 18.1063 19.402C17.9132 19.5902 17.6852 19.7336 17.4369 19.8228C17.1886 19.912 16.9256 19.9452 16.6645 19.9201C13.7687 19.5857 10.9871 18.5342 8.54313 16.8501C6.26934 15.3148 4.34157 13.2663 2.89672 10.8501C1.30629 8.2413 0.316537 5.27109 0.00763837 2.1801C-0.0158785 1.90356 0.0150492 1.62486 0.0984518 1.36172C0.181854 1.09859 0.315905 0.856786 0.492068 0.651718C0.668232 0.44665 0.882648 0.282806 1.12167 0.170619C1.36068 0.0584315 1.61907 0.000358432 1.88036 9.69523e-05H4.70357C5.16027 -0.00467949 5.60303 0.167176 5.94932 0.48363C6.2956 0.800084 6.52178 1.23954 6.5857 1.7201C6.70487 2.68016 6.92585 3.62282 7.24445 4.5301C7.37107 4.88802 7.39847 5.27701 7.32341 5.65098C7.24836 6.02494 7.07399 6.36821 6.82097 6.6401L5.62582 7.9101C6.96548 10.4136 8.91622 12.4865 11.2722 13.9101L12.4674 12.6401C12.7232 12.3712 13.0463 12.1859 13.3982 12.1062C13.7501 12.0264 14.1162 12.0556 14.453 12.1901C15.3068 12.5286 16.1939 12.7635 17.0974 12.8901C17.5546 12.9586 17.9721 13.2033 18.2705 13.5776C18.569 13.9519 18.7275 14.4297 18.7161 14.9201Z" fill="#734D29"/>
</svg>
