<svg width="18" height="18" viewBox="0 0 18 18" fill="none" xmlns="http://www.w3.org/2000/svg">
<path d="M12.1341 5.22223L16.9741 5.95864C17.3749 6.01769 17.7117 6.30948 17.8397 6.70895C17.9677 7.11189 17.8633 7.54957 17.5736 7.8483L14.0641 11.3984L14.8926 16.4907C14.96 16.9075 14.7949 17.3313 14.4581 17.578C14.1247 17.8246 13.6835 17.8558 13.3231 17.6578L8.9984 15.2784L4.6771 17.6578C4.31334 17.8558 3.87212 17.8246 3.53867 17.578C3.20523 17.3313 3.03682 16.9075 3.10755 16.4907L3.93611 11.3984L0.425852 7.8483C0.135857 7.54957 0.0327924 7.11189 0.160107 6.70895C0.287086 6.30948 0.622888 6.01769 1.02673 5.95864L5.86268 5.22223L8.03175 0.62557C8.21026 0.242915 8.58749 0 8.9984 0C9.41268 0 9.78991 0.242915 9.96842 0.62557L12.1341 5.22223Z" fill="#D9D9D9"/>
<path fill-rule="evenodd" clip-rule="evenodd" d="M8.99999 1.18816e-06C8.99946 3.96125e-07 8.99893 0 8.9984 0C8.58749 0 8.21026 0.242915 8.03175 0.62557L5.86268 5.22223L1.02673 5.95864C0.622888 6.01769 0.287086 6.30948 0.160107 6.70895C0.0327924 7.11189 0.135857 7.54957 0.425852 7.8483L3.93611 11.3984L3.10755 16.4907C3.03682 16.9075 3.20523 17.3313 3.53867 17.578C3.87212 17.8246 4.31334 17.8558 4.6771 17.6578L8.9984 15.2784L8.99999 15.2793V1.18816e-06Z" fill="#FFDC61"/>
</svg>
