<svg width="963" height="507" viewBox="0 0 963 507" fill="none" xmlns="http://www.w3.org/2000/svg">
<g filter="url(#filter0_d_97_205)">
<path d="M112.897 405.509C113.784 408.098 115.655 410.235 118.11 411.461C120.565 412.687 123.407 412.905 126.028 412.068L1278.91 45.021C1281.16 44.3041 1283.11 42.8503 1284.43 40.8955C1285.76 38.9408 1286.38 36.5997 1286.2 34.2521L1284.71 14.5466C1284.59 12.9608 1284.11 11.4243 1283.3 10.0543C1282.49 8.68421 1281.38 7.51669 1280.05 6.64046C1278.72 5.76424 1277.21 5.20252 1275.62 4.99801C1274.04 4.79351 1272.43 4.95164 1270.91 5.46034L119.51 392.196C118.198 392.638 116.985 393.333 115.942 394.242C114.898 395.151 114.045 396.256 113.43 397.493C112.816 398.73 112.452 400.075 112.361 401.45C112.269 402.826 112.451 404.205 112.897 405.509Z" fill="#734D29"/>
</g>
<g filter="url(#filter1_d_97_205)">
<path d="M47.2305 426.235C47.2305 426.235 17.4446 441.426 23.9216 477.064C30.8712 515.773 109.012 510.867 130.945 490.351C130.945 490.351 177.201 499.261 217.314 482.012C257.427 464.763 334.067 425.79 331.287 378.213C331.287 378.213 356 369.874 356 338.114C356 306.355 316.276 301.726 308.854 304.992C308.854 304.992 304.128 280.919 265.155 269.105C223.652 256.512 194.603 283.532 194.603 283.532C194.603 283.532 121.41 261.808 95.6829 342.117C95.6829 342.117 31.5105 363.633 47.2305 426.235Z" fill="#FFF4B6"/>
</g>
<path d="M191.962 349.47C143.927 372.306 107.928 434.852 126.289 484.889C126.505 485.46 126.909 485.941 127.435 486.251C127.962 486.561 128.578 486.683 129.182 486.595C129.787 486.508 130.343 486.217 130.76 485.77C131.176 485.323 131.428 484.748 131.473 484.138C134.767 434.977 148.152 388.846 194.798 354.112C195.261 353.674 195.561 353.091 195.645 352.459C195.73 351.827 195.594 351.185 195.262 350.641C194.93 350.097 194.421 349.684 193.82 349.47C193.219 349.257 192.563 349.257 191.962 349.47Z" fill="#F7B43F"/>
<path d="M231.644 333.472C258.053 328.176 302.933 325.243 324.004 359.005C324.261 359.402 324.366 359.88 324.298 360.349C324.23 360.818 323.994 361.246 323.635 361.555C323.275 361.864 322.816 362.032 322.342 362.028C321.868 362.024 321.412 361.849 321.057 361.534C308.826 350.54 282.738 335.598 232.103 337.336C231.596 337.386 231.089 337.236 230.691 336.917C230.294 336.598 230.037 336.135 229.977 335.629C229.917 335.123 230.058 334.613 230.37 334.21C230.682 333.806 231.139 333.541 231.644 333.472Z" fill="#F7B43F"/>
<path d="M217.3 481.998C257.399 464.749 334.053 425.776 331.273 378.199C322.253 416.561 307.52 418.979 296.414 420.967C284.114 423.177 272.939 423.747 252.59 435.158C231.38 447.028 220.442 467.001 198.384 477.898C166.805 493.534 130.903 490.407 130.903 490.407C130.903 490.407 177.187 499.261 217.3 481.998Z" fill="#F7B43F"/>
<path d="M47.2305 426.235C64.7017 408.527 96.6697 405.984 113.196 426.235C90.8321 413.614 69.9834 416.325 47.2305 426.235Z" fill="#F7B43F"/>
<path d="M93.8899 343.299C113.071 328.899 140.383 337.35 148.986 359.616C145.301 355.941 141.333 352.562 137.116 349.512C124.607 340.338 108.609 339.504 93.8343 343.299H93.8899Z" fill="#F7B43F"/>
<path d="M194.603 283.532C216.536 280.752 236.884 297.654 235.133 320.323C233.779 315.572 231.944 310.971 229.657 306.591C222.61 293.498 208.808 286.576 194.603 283.532Z" fill="#F7B43F"/>
<path d="M308.854 304.992C318.041 312.331 317.805 328.204 308.854 335.654C309.243 332.874 309.966 330.414 310.244 327.731C311.523 319.99 310.619 312.679 308.854 304.992Z" fill="#F7B43F"/>
<path d="M131.418 484.152C131.418 484.152 124.468 403.454 184.04 354.154C187.69 351.054 191.961 348.771 196.566 347.46C201.172 346.149 206.005 345.839 210.74 346.551C216.405 347.275 221.593 350.097 225.278 354.459C233.521 364.689 231.464 384.621 216.397 396.157C193.241 413.823 157.437 422.093 131.418 484.152Z" fill="white"/>
<g filter="url(#filter2_d_97_205)">
<path d="M92.7093 428.306C93.3958 430.96 95.0919 433.242 97.4363 434.665C99.7807 436.088 102.588 436.539 105.26 435.922L1283.19 157.823C1285.5 157.277 1287.55 155.969 1289.02 154.11C1290.49 152.251 1291.29 149.951 1291.29 147.582L1291.29 127.721C1291.28 126.122 1290.92 124.545 1290.21 123.11C1289.51 121.674 1288.49 120.418 1287.23 119.436C1285.96 118.454 1284.5 117.773 1282.93 117.444C1281.37 117.116 1279.75 117.148 1278.2 117.538L100.329 415.528C98.9886 415.865 97.7281 416.464 96.6194 417.289C95.5108 418.114 94.5759 419.15 93.8681 420.337C93.1603 421.523 92.6937 422.838 92.4948 424.206C92.296 425.573 92.3689 426.967 92.7093 428.306Z" fill="#B0723F"/>
</g>
<defs>
<filter id="filter0_d_97_205" x="112.338" y="4.91113" width="1180.89" height="414.658" filterUnits="userSpaceOnUse" color-interpolation-filters="sRGB">
<feFlood flood-opacity="0" result="BackgroundImageFix"/>
<feColorMatrix in="SourceAlpha" type="matrix" values="0 0 0 0 0 0 0 0 0 0 0 0 0 0 0 0 0 0 127 0" result="hardAlpha"/>
<feOffset dx="7" dy="7"/>
<feComposite in2="hardAlpha" operator="out"/>
<feColorMatrix type="matrix" values="0 0 0 0 0.698039 0 0 0 0 0.588235 0 0 0 0 0.423529 0 0 0 1 0"/>
<feBlend mode="normal" in2="BackgroundImageFix" result="effect1_dropShadow_97_205"/>
<feBlend mode="normal" in="SourceGraphic" in2="effect1_dropShadow_97_205" result="shape"/>
</filter>
<filter id="filter1_d_97_205" x="0" y="260.76" width="356" height="245.269" filterUnits="userSpaceOnUse" color-interpolation-filters="sRGB">
<feFlood flood-opacity="0" result="BackgroundImageFix"/>
<feColorMatrix in="SourceAlpha" type="matrix" values="0 0 0 0 0 0 0 0 0 0 0 0 0 0 0 0 0 0 127 0" result="hardAlpha"/>
<feOffset dx="-23" dy="-5"/>
<feComposite in2="hardAlpha" operator="out"/>
<feColorMatrix type="matrix" values="0 0 0 0 0.698039 0 0 0 0 0.588235 0 0 0 0 0.423529 0 0 0 1 0"/>
<feBlend mode="normal" in2="BackgroundImageFix" result="effect1_dropShadow_97_205"/>
<feBlend mode="normal" in="SourceGraphic" in2="effect1_dropShadow_97_205" result="shape"/>
</filter>
<filter id="filter2_d_97_205" x="92.3855" y="117.219" width="1205.9" height="325.972" filterUnits="userSpaceOnUse" color-interpolation-filters="sRGB">
<feFlood flood-opacity="0" result="BackgroundImageFix"/>
<feColorMatrix in="SourceAlpha" type="matrix" values="0 0 0 0 0 0 0 0 0 0 0 0 0 0 0 0 0 0 127 0" result="hardAlpha"/>
<feOffset dx="7" dy="7"/>
<feComposite in2="hardAlpha" operator="out"/>
<feColorMatrix type="matrix" values="0 0 0 0 0.698039 0 0 0 0 0.588235 0 0 0 0 0.423529 0 0 0 1 0"/>
<feBlend mode="normal" in2="BackgroundImageFix" result="effect1_dropShadow_97_205"/>
<feBlend mode="normal" in="SourceGraphic" in2="effect1_dropShadow_97_205" result="shape"/>
</filter>
</defs>
</svg>
